<svg width="190" height="104" viewBox="0 0 190 104" fill="none" xmlns="http://www.w3.org/2000/svg">
<path d="M138.643 56.8564C138.643 53.3576 139.64 50.5896 141.633 48.5523C143.67 46.515 146.416 45.4964 149.87 45.4964C153.325 45.4964 156.071 46.5372 158.108 48.6187C160.145 50.656 161.164 53.4019 161.164 56.8564C161.164 60.3109 160.145 63.0568 158.108 65.0941C156.071 67.1314 153.325 68.15 149.87 68.15C146.416 68.15 143.67 67.1314 141.633 65.0941C139.64 63.0568 138.643 60.3109 138.643 56.8564ZM154.454 56.9893C154.454 54.0219 154.034 51.6082 153.192 49.7481C152.351 47.8437 151.288 46.8915 150.003 46.8915C148.586 46.8915 147.435 47.8215 146.549 49.6817C145.663 51.4975 145.22 53.8891 145.22 56.8564C145.22 59.868 145.619 62.2596 146.416 64.0312C147.257 65.8027 148.365 66.6885 149.738 66.6885C151.111 66.6885 152.24 65.8027 153.126 64.0312C154.011 62.2153 154.454 59.868 154.454 56.9893Z" fill="black"/>
<path d="M105.951 66.3563C107.058 66.0463 107.855 65.7584 108.342 65.4927C108.829 65.1827 109.162 64.7841 109.339 64.2969C109.516 63.8097 109.604 63.0568 109.604 62.0382V44.0349C109.604 42.4848 109.472 41.3554 109.206 40.6468C108.984 39.9382 108.431 39.3181 107.545 38.7867L106.748 38.3216L107.014 37.458C108.475 37.0151 110.291 36.6608 112.461 36.3951C114.631 36.0851 116.624 35.9301 118.44 35.9301C124.065 35.9301 128.338 37.3251 131.262 40.1153C134.229 42.8612 135.713 46.8472 135.713 52.0732C135.713 56.8121 134.34 60.5766 131.594 63.3668C128.892 66.157 125.194 67.5521 120.499 67.5521H106.416L105.951 66.3563ZM119.902 66.2234C125.88 66.2234 128.87 61.5067 128.87 52.0732C128.87 47.733 128.006 44.2563 126.279 41.6433C124.596 38.986 122.36 37.6573 119.569 37.6573C118.418 37.6573 117.532 37.8345 116.912 38.1888C116.292 38.5431 115.982 39.0524 115.982 39.7167V60.0452C115.982 62.1267 116.292 63.6768 116.912 64.6955C117.576 65.7141 118.573 66.2234 119.902 66.2234Z" fill="black"/>
<path d="M88.8742 63.7654C88.8742 65.0941 89.295 65.7584 90.1364 65.7584C90.9779 65.7584 91.7973 65.4263 92.5945 64.7619L93.1259 65.4263C91.5758 67.2421 89.6493 68.15 87.3463 68.15C85.7962 68.15 84.6668 67.7957 83.9582 67.0871C83.2496 66.3342 82.8953 65.1605 82.8953 63.5661V39.1853C82.8953 38.5652 82.6074 38.2552 82.0316 38.2552H79.9058L79.7065 37.5909C80.548 36.7937 81.633 36.1736 82.9617 35.7308C84.3346 35.2436 85.6854 35 87.0141 35C87.5898 35 88.0327 35.1329 88.3428 35.3986C88.6971 35.62 88.8742 35.9522 88.8742 36.3951V63.7654Z" fill="black"/>
<path d="M64.3449 52.8704C63.4148 53.4019 62.3076 53.6676 61.0232 53.6676C60.0932 53.6676 59.3624 53.4019 58.831 52.8704C58.2995 52.2947 58.0338 51.4975 58.0338 50.4789C58.0338 48.973 58.7645 47.7772 60.226 46.8915C61.7319 45.9614 63.6806 45.4964 66.0721 45.4964C68.9066 45.4964 71.121 46.1164 72.7154 47.3565C74.3541 48.5966 75.1734 50.2796 75.1734 52.4054V63.8983C75.1734 65.1384 75.6163 65.7584 76.5021 65.7584C77.3436 65.7584 78.1629 65.4262 78.9601 64.7619L79.4916 65.4262C77.8529 67.2421 75.9042 68.15 73.6455 68.15C72.3168 68.15 71.2982 67.8178 70.5896 67.1535C69.9252 66.4892 69.5266 65.4484 69.3938 64.0312H69.1281C68.4194 65.3155 67.4672 66.3342 66.2714 67.0871C65.1199 67.7957 63.7913 68.15 62.2855 68.15C60.6025 68.15 59.2517 67.6407 58.2331 66.622C57.2144 65.5591 56.7051 64.1862 56.7051 62.5032C56.7051 60.5988 57.613 59.093 59.4289 57.9858C61.2447 56.8785 63.7027 56.3249 66.8029 56.3249C67.3787 56.3249 68.198 56.3692 69.2609 56.4578V53.1362C69.2609 50.966 68.9952 49.4159 68.4637 48.4859C67.9323 47.5115 67.0686 47.0243 65.8728 47.0243C65.0314 47.0243 64.367 47.2901 63.8799 47.8215C63.3927 48.353 63.1491 49.0395 63.1491 49.881C63.1491 51.2096 63.5477 52.2061 64.3449 52.8704ZM65.3414 64.8284C67.9544 64.8284 69.2609 62.4589 69.2609 57.72C67.0465 57.72 65.3857 58.0965 64.2785 58.8494C63.1712 59.558 62.6176 60.5766 62.6176 61.9053C62.6176 62.7911 62.8612 63.4997 63.3484 64.0312C63.8356 64.5626 64.4999 64.8284 65.3414 64.8284Z" fill="black"/>
<path d="M43.6152 68.15C38.8764 68.15 35.2447 66.6442 32.7202 63.6326C30.2401 60.6209 29 56.7678 29 52.0732C29 47.3786 30.2622 43.5255 32.7867 40.5139C35.3111 37.458 38.9649 35.9301 43.7481 35.9301C46.804 35.9301 49.2842 36.5279 51.1886 37.7237C53.1373 38.8752 54.1116 40.4032 54.1116 42.3076C54.1116 44.1677 53.3366 45.6293 51.7865 46.6922C50.2364 47.7551 48.2877 48.2866 45.9404 48.2866C47.269 46.8693 47.9334 44.9428 47.9334 42.5069C47.9334 41.0897 47.4905 39.916 46.6047 38.986C45.7632 38.0116 44.656 37.5244 43.2831 37.5244C40.7586 37.5244 38.8985 38.9638 37.7027 41.8426C36.5512 44.7213 35.9755 48.1316 35.9755 52.0732C35.9755 54.5977 36.3298 56.9007 37.0384 58.9823C37.7913 61.0638 38.8542 62.7246 40.2272 63.9647C41.6444 65.1605 43.2609 65.7584 45.0768 65.7584C47.1583 65.7584 48.8856 65.3377 50.2585 64.4962C51.6758 63.6104 52.9601 62.3925 54.1116 60.8424L54.9088 61.4403C53.713 63.4333 52.1629 65.0498 50.2585 66.2899C48.3984 67.53 46.184 68.15 43.6152 68.15Z" fill="black"/>
<path d="M0 57H189.5" stroke="#E94040" stroke-width="2"/>
</svg>
